<svg xmlns="http://www.w3.org/2000/svg" viewBox="0 0 256 256" fill="none" stroke-linecap="square" stroke-linejoin="miter"><defs><filter id="g" x="-50%" y="-50%" width="200%" height="200%"><feGaussianBlur stdDeviation="4" result="b"/><feMerge><feMergeNode in="b"/><feMergeNode in="SourceGraphic"/></feMerge></filter></defs><polygon points="38.0,109.0 53.0,118.5 53.0,137.5 38.0,147.0 23.0,137.5 23.0,118.5" fill="#00E5CC" opacity="1" filter="url(#g)"/><polygon points="74.0,109.0 89.0,118.5 89.0,137.5 74.0,147.0 59.0,137.5 59.0,118.5" fill="#00E5CC" opacity="1" filter="url(#g)"/><polygon points="110.0,109.0 125.0,118.5 125.0,137.5 110.0,147.0 95.0,137.5 95.0,118.5" fill="#00E5CC" opacity="1" filter="url(#g)"/><polygon points="146.0,109.0 161.0,118.5 161.0,137.5 146.0,147.0 131.0,137.5 131.0,118.5" fill="#00E5CC" opacity="1" filter="url(#g)"/><polygon points="182.0,109.0 197.0,118.5 197.0,137.5 182.0,147.0 167.0,137.5 167.0,118.5" fill="#8E8E9A" opacity="0.45"/><polygon points="218.0,109.0 233.0,118.5 233.0,137.5 218.0,147.0 203.0,137.5 203.0,118.5" fill="#8E8E9A" opacity="0.45"/></svg>