<?xml version="1.0" encoding="UTF-8"?>
<svg xmlns="http://www.w3.org/2000/svg" width="30.0mm" height="140.0mm" viewBox="0 0 30.0 140.0">
<rect width="30.0" height="140.0" fill="#0b0d0e"/>
<rect x="0.25" y="2" width="2.5" height="136.0" rx="0.4" fill="#00E5CC"/>
<g transform="translate(15.0 40.0) rotate(90)" fill="#00E5CC"><path d="M -3.371 8.345 A 9.0 9.0 0 1 1 3.371 8.345 L 2.360 5.841 A 6.300000000000001 6.300000000000001 0 1 0 -2.360 5.841 Z"/><circle cx="0.000" cy="-4.350" r="1.7249999999999999"/><g transform="translate(11.1408 4.1671) scale(0.010740 -0.010740)"><path d="M80 693H236V0H80ZM703 394Q683 399 656.0 404.5Q629 410 598 410Q584 410 564.5 407.5Q545 405 535 402V0H386V498Q426 512 480.5 524.5Q535 537 602 537Q614 537 631.0 535.5Q648 534 665.0 531.5Q682 529 699.0 525.5Q716 522 728 517ZM1300 264Q1300 202 1282.0 150.5Q1264 99 1230.0 62.5Q1196 26 1148.5 6.0Q1101 -14 1042 -14Q984 -14 936.5 6.0Q889 26 855.0 62.5Q821 99 802.0 150.5Q783 202 783 264Q783 326 802.5 377.0Q822 428 856.5 464.0Q891 500 938.5 520.0Q986 540 1042 540Q1099 540 1146.5 520.0Q1194 500 1228.0 464.0Q1262 428 1281.0 377.0Q1300 326 1300 264ZM1148 264Q1148 333 1120.5 372.5Q1093 412 1042 412Q991 412 963.0 372.5Q935 333 935 264Q935 195 963.0 154.5Q991 114 1042 114Q1093 114 1120.5 154.5Q1148 195 1148 264ZM1415 508Q1453 519 1513.0 528.5Q1573 538 1639 538Q1706 538 1750.5 520.5Q1795 503 1821.0 471.0Q1847 439 1858.0 395.0Q1869 351 1869 297V0H1720V279Q1720 351 1701.0 381.0Q1682 411 1630 411Q1614 411 1596.0 409.5Q1578 408 1564 406V0H1415ZM2222 701Q2377 701 2460.0 646.5Q2543 592 2543 468Q2543 343 2459.0 287.5Q2375 232 2219 232H2170V0H2014V683Q2065 693 2122.0 697.0Q2179 701 2222 701ZM2232 568Q2215 568 2198.5 567.0Q2182 566 2170 565V365H2219Q2300 365 2341.0 387.0Q2382 409 2382 469Q2382 498 2371.5 517.0Q2361 536 2341.5 547.5Q2322 559 2294.0 563.5Q2266 568 2232 568ZM2849 104Q2871 104 2891.0 105.0Q2911 106 2923 108V221Q2914 223 2896.0 225.0Q2878 227 2863 227Q2842 227 2823.5 224.5Q2805 222 2791.0 215.0Q2777 208 2769.0 196.0Q2761 184 2761 166Q2761 131 2784.5 117.5Q2808 104 2849 104ZM2837 540Q2903 540 2947.0 525.0Q2991 510 3017.5 482.0Q3044 454 3055.0 414.0Q3066 374 3066 325V15Q3034 8 2977.0 -1.5Q2920 -11 2839 -11Q2788 -11 2746.5 -2.0Q2705 7 2675.0 27.5Q2645 48 2629.0 81.0Q2613 114 2613 162Q2613 208 2631.5 240.0Q2650 272 2681.0 291.0Q2712 310 2752.0 318.5Q2792 327 2835 327Q2864 327 2886.5 324.5Q2909 322 2923 318V332Q2923 370 2900.0 393.0Q2877 416 2820 416Q2782 416 2745.0 410.5Q2708 405 2681 395L2662 515Q2675 519 2694.5 523.5Q2714 528 2737.0 531.5Q2760 535 2785.5 537.5Q2811 540 2837 540ZM3411 -10Q3346 -9 3305.5 4.0Q3265 17 3241.5 40.5Q3218 64 3209.5 97.5Q3201 131 3201 173V752L3350 776V203Q3350 183 3353.0 167.0Q3356 151 3364.5 140.0Q3373 129 3389.0 122.0Q3405 115 3432 113Z"/></g></g>
</svg>